<?xml version="1.0" encoding="UTF-8"?>
<svg width="598px" height="220px" viewBox="0 0 598 220" version="1.1" xmlns="http://www.w3.org/2000/svg" xmlns:xlink="http://www.w3.org/1999/xlink">
    <!-- Generator: Sketch 52.2 (67145) - http://www.bohemiancoding.com/sketch -->
    <title>Group 2</title>
    <desc>Created with Sketch.</desc>
    <g id="logo_ivan" stroke="none" stroke-width="1" fill="none" fill-rule="evenodd">
        <g id="Group-2" fill="#000000">
            <g id="ivan_logo">
                <path d="M27,175.37 L27,67 L38,67 L38,159.753667 L91.5513546,67 L92.1979869,67 L102.139156,67 L102.956622,67 L154,159.084692 L154,67 L165,67 L165,175.37 L153.880261,175.37 L102.8,83.2187699 L102.8,175.37 L91.8,175.37 L91.8,138.47 L59.5257352,138.47 L38.2215103,175.37 L27,175.37 Z M21.8,175.37 L10.8,175.37 L10.8,67 L21.8,67 L21.8,175.37 Z M62.9898368,132.47 L91.8,132.47 L91.8,82.5693336 L62.9898368,132.47 Z" id="Combined-Shape"></path>
                <g id="Heib" transform="translate(174.000000, 68.500000) scale(-1, -1) rotate(90.000000) translate(-174.000000, -68.500000) translate(105.500000, 35.500000)">
                    <path d="M36,49 L36,36 L42,36 L42,49 L42,55 L-2.95585778e-12,55 L-2.95585778e-12,49 L36,49 Z M24.5,66 C22.5670034,66 21,64.4329966 21,62.5 C21,60.5670034 22.5670034,59 24.5,59 C26.4329966,59 28,60.5670034 28,62.5 C28,64.4329966 26.4329966,66 24.5,66 Z" id="Combined-Shape"></path>
                    <path d="M65,49 L65,36 L71,36 L71,49 L71,55 L41,55 L41,49 L65,49 Z M47.5,66 C45.5670034,66 44,64.4329966 44,62.5 C44,60.5670034 45.5670034,59 47.5,59 C49.4329966,59 51,60.5670034 51,62.5 C51,64.4329966 49.4329966,66 47.5,66 Z M59.5,66 C57.5670034,66 56,64.4329966 56,62.5 C56,60.5670034 57.5670034,59 59.5,59 C61.4329966,59 63,60.5670034 63,62.5 C63,64.4329966 61.4329966,66 59.5,66 Z" id="Combined-Shape"></path>
                    <path d="M94.6678259,49 C91.7789738,46.028232 90,41.9718668 90,37.5 C90,28.3873016 97.3873016,21 106.5,21 C115.612698,21 123,28.3873016 123,37.5 C123,40.2097607 122.346789,42.7669557 121.189238,45.0227125 C127.745536,41.2908573 132,35.2797779 132,28.5 C132,17.2211078 120.225382,8.06965866 105.666423,8.00039578 L105.666402,8.00047944 C105.610976,8.00015997 105.555509,8 105.5,8 C105.464161,8 105.42834,8.00006669 105.392535,8.00019993 C92.8029612,8.03883353 82.2842033,14.8687966 79.6404692,24 L77.0273816,24 C77.0091891,23.6684366 77,23.3350549 77,23 C77,10.2974508 90.2075999,9.97621783e-16 106.5,0 C119.634232,-8.04239787e-16 130.763687,6.69220114 134.5849,15.9417002 C136.032459,18.3067768 137,22.5983137 137,27.5 C137,32.4016863 136.032459,36.6932232 134.5849,39.0582998 C130.812268,48.190199 119.916058,54.8294115 107,54.996763 L107,55 L71,55 L71,49 L94.6678259,49 Z M105.5,48 C111.851275,48 117,42.8512746 117,36.5 C117,30.1487254 111.851275,25 105.5,25 C99.1487254,25 94,30.1487254 94,36.5 C94,42.8512746 99.1487254,48 105.5,48 Z" id="Combined-Shape"></path>
                </g>
                <path d="M68.5,220 C66.5670034,220 65,218.432997 65,216.5 C65,214.567003 66.5670034,213 68.5,213 C70.4329966,213 72,214.567003 72,216.5 C72,218.432997 70.4329966,220 68.5,220 Z M138.5,220 C136.567003,220 135,218.432997 135,216.5 C135,214.567003 136.567003,213 138.5,213 C140.432997,213 142,214.567003 142,216.5 C142,218.432997 140.432997,220 138.5,220 Z M240,113.034285 L240,113 C240.173973,113 240.347621,113.001866 240.520934,113.005583 C240.638377,113.001867 240.756133,113 240.874191,113 C241.494316,113 242.106135,113.05152 242.707722,113.151768 C259.113585,114.998874 272,133.477239 272,156 C272,172.231836 264.424711,186.306244 254.279528,193.768426 C251.346285,196.413592 246.397693,198.930658 238.439912,200.666992 C214.980355,205.785708 171.899694,206.9433 129.017403,206.999289 C57.7630588,207.092324 0,198.038071 0,186.776049 L2.57456261,186.772688 C14.5642253,195.754647 67.0017787,202.584874 129.696442,202.670611 C172.228057,202.728775 189.498164,203.354221 223.287132,199.142579 C232.663358,197.973875 232.663358,197.973875 236.284455,197.091574 C238.750477,196.490714 236.833643,196.982074 240,196.099621 L240,196.081951 C240.055182,196.072684 240.110293,196.063227 240.165333,196.053581 C240.182444,196.04882 240.199692,196.044022 240.217079,196.039186 C244.750863,194.778272 247.181555,193.187212 248.339804,192.563827 C249.438459,191.972516 250.537786,191.285246 252.265803,189.876294 C252.654987,189.558969 253.321707,188.993967 254.094836,188.331061 C261.304772,180.773804 265.5,168.710695 265.5,155.596656 C265.5,142.316986 260.066419,129.990425 251.884537,122.365169 C249.192959,120.251351 245.973755,119 242.604933,119 C234.624547,119 229.042376,125.950613 229.042376,134.827745 C229.042376,135.200383 229.042376,135.587893 229.055987,136 L229,136 C229,148.702549 220.269553,159 209.5,159 C198.730447,159 190,148.702549 190,136 L196,136 C196,147.045695 202.491871,156 210.5,156 C218.508129,156 225,147.045695 225,136 C225,123.722445 231.639502,113.691743 240,113.034285 Z" id="Combined-Shape"></path>
            </g>
            <text id="IvanHB" font-family="AvenirNext-Medium, Avenir Next" font-size="85" font-weight="400">
                <tspan x="304" y="170"> IvanHB</tspan>
            </text>
            <rect id="Rectangle" x="297" y="158" width="12" height="12"></rect>
        </g>
    </g>
</svg>